<svg width="720" height="723" viewBox="0 0 720 723" fill="none" xmlns="http://www.w3.org/2000/svg">
<path d="M539.014 171.097H535.058V62.725C535.058 46.0898 528.45 30.1359 516.687 18.3728C504.925 6.60965 488.971 0.000795625 472.336 0H242.723C226.087 0 210.133 6.60851 198.37 18.3717C186.607 30.1349 179.998 46.0893 179.998 62.725V657.274C179.998 665.511 181.62 673.668 184.773 681.278C187.925 688.888 192.545 695.803 198.37 701.627C204.194 707.452 211.109 712.072 218.719 715.224C226.329 718.377 234.486 719.999 242.723 719.999H472.336C488.971 719.999 504.925 713.39 516.688 701.627C528.451 689.864 535.06 673.91 535.06 657.275V248.238H539.016L539.014 171.097Z" fill="#E6E6E6"/>
<path d="M474.864 16.313H444.895C446.273 19.6923 446.799 23.3587 446.427 26.9892C446.054 30.6197 444.794 34.1028 442.758 37.1317C440.723 40.1606 437.973 42.6424 434.752 44.3584C431.531 46.0744 427.938 46.972 424.288 46.972H292.747C289.097 46.9721 285.504 46.0746 282.283 44.3586C279.062 42.6425 276.312 40.1606 274.276 37.1315C272.241 34.1023 270.981 30.619 270.609 26.9884C270.236 23.3578 270.763 19.6913 272.141 16.312H244.149C231.726 16.312 219.811 21.2472 211.026 30.032C202.241 38.8168 197.306 50.7315 197.306 63.155V656.841C197.306 669.265 202.241 681.179 211.026 689.964C219.811 698.749 231.726 703.684 244.149 703.684H474.864C487.288 703.684 499.202 698.749 507.987 689.964C516.772 681.179 521.707 669.265 521.707 656.841V63.154C521.707 50.7308 516.772 38.8165 507.987 30.032C499.203 21.2475 487.288 16.3123 474.865 16.312L474.864 16.313Z" fill="white"/>
<path d="M330.107 252.806C330.107 248.655 331.199 244.578 333.276 240.984C335.352 237.39 338.338 234.407 341.934 232.334C338.341 230.259 334.265 229.167 330.115 229.167C325.966 229.166 321.89 230.258 318.296 232.333C314.703 234.407 311.719 237.391 309.644 240.985C307.57 244.578 306.477 248.654 306.477 252.803C306.477 256.953 307.57 261.029 309.644 264.622C311.719 268.216 314.703 271.2 318.296 273.274C321.89 275.349 325.966 276.441 330.115 276.44C334.265 276.44 338.341 275.348 341.934 273.273C338.339 271.201 335.354 268.218 333.278 264.625C331.203 261.032 330.11 256.955 330.111 252.806H330.107Z" fill="#CCCCCC"/>
<path d="M359.821 252.806C359.82 248.655 360.913 244.578 362.989 240.984C365.066 237.39 368.052 234.407 371.648 232.334C368.055 230.259 363.979 229.167 359.829 229.167C355.68 229.166 351.604 230.258 348.01 232.333C344.417 234.407 341.433 237.391 339.358 240.985C337.283 244.578 336.191 248.654 336.191 252.803C336.191 256.953 337.283 261.029 339.358 264.622C341.433 268.216 344.417 271.2 348.01 273.274C351.604 275.349 355.68 276.441 359.829 276.44C363.979 276.44 368.055 275.348 371.648 273.273C368.053 271.201 365.068 268.218 362.992 264.625C360.917 261.032 359.824 256.955 359.825 252.806H359.821Z" fill="#CCCCCC"/>
<path d="M388.862 276.443C401.916 276.443 412.499 265.86 412.499 252.806C412.499 239.752 401.916 229.169 388.862 229.169C375.808 229.169 365.225 239.752 365.225 252.806C365.225 265.86 375.808 276.443 388.862 276.443Z" fill="#922C22"/>
<path d="M428.365 326.634H290.602C289.291 326.632 288.033 326.111 287.106 325.183C286.178 324.256 285.657 322.999 285.655 321.687V183.925C285.658 182.614 286.18 181.358 287.107 180.431C288.034 179.505 289.291 178.984 290.602 178.982H428.365C429.677 178.984 430.934 179.505 431.861 180.433C432.789 181.36 433.31 182.617 433.312 183.929V321.682C433.31 322.994 432.789 324.251 431.861 325.178C430.934 326.106 429.677 326.627 428.365 326.629V326.634ZM290.602 180.958C289.815 180.959 289.061 181.272 288.504 181.828C287.948 182.385 287.635 183.139 287.634 183.926V321.688C287.635 322.475 287.948 323.229 288.504 323.786C289.061 324.342 289.815 324.655 290.602 324.656H428.365C429.152 324.655 429.906 324.342 430.463 323.786C431.019 323.229 431.332 322.475 431.333 321.688V183.926C431.332 183.139 431.019 182.385 430.463 181.828C429.906 181.272 429.152 180.959 428.365 180.958H290.602Z" fill="#CCCCCC"/>
<path d="M459.125 432.234H247.841V434.213H459.125V432.234Z" fill="#CCCCCC"/>
<path d="M254.513 419.878C258.198 419.878 261.185 416.891 261.185 413.206C261.185 409.521 258.198 406.534 254.513 406.534C250.828 406.534 247.841 409.521 247.841 413.206C247.841 416.891 250.828 419.878 254.513 419.878Z" fill="#922C22"/>
<path d="M459.125 498.955H247.841V500.934H459.125V498.955Z" fill="#CCCCCC"/>
<path d="M254.513 486.6C258.198 486.6 261.185 483.613 261.185 479.928C261.185 476.243 258.198 473.256 254.513 473.256C250.828 473.256 247.841 476.243 247.841 479.928C247.841 483.613 250.828 486.6 254.513 486.6Z" fill="#922C22"/>
<path d="M455.258 574.934H388.486C387.333 574.933 386.227 574.474 385.411 573.658C384.596 572.843 384.137 571.737 384.136 570.584V547.184C384.137 546.031 384.596 544.925 385.411 544.109C386.227 543.294 387.333 542.835 388.486 542.834H455.258C456.411 542.835 457.517 543.294 458.332 544.109C459.148 544.925 459.607 546.031 459.608 547.184V570.584C459.607 571.737 459.148 572.843 458.332 573.658C457.517 574.474 456.411 574.933 455.258 574.934Z" fill="#922C22"/>
<path d="M276.278 419.878C279.963 419.878 282.95 416.891 282.95 413.206C282.95 409.521 279.963 406.534 276.278 406.534C272.593 406.534 269.606 409.521 269.606 413.206C269.606 416.891 272.593 419.878 276.278 419.878Z" fill="#922C22"/>
<path d="M298.043 419.878C301.728 419.878 304.715 416.891 304.715 413.206C304.715 409.521 301.728 406.534 298.043 406.534C294.358 406.534 291.371 409.521 291.371 413.206C291.371 416.891 294.358 419.878 298.043 419.878Z" fill="#922C22"/>
<path d="M276.278 486.6C279.963 486.6 282.95 483.613 282.95 479.928C282.95 476.243 279.963 473.256 276.278 473.256C272.593 473.256 269.606 476.243 269.606 479.928C269.606 483.613 272.593 486.6 276.278 486.6Z" fill="#922C22"/>
<path d="M298.043 486.6C301.728 486.6 304.715 483.613 304.715 479.928C304.715 476.243 301.728 473.256 298.043 473.256C294.358 473.256 291.371 476.243 291.371 479.928C291.371 483.613 294.358 486.6 298.043 486.6Z" fill="#922C22"/>
<path d="M625.753 452.901L608.953 486.158L558.731 508.992C553.367 518.057 536.322 518.751 535.082 512.892C533.691 506.316 555.782 495.731 555.782 495.731L597.794 467.315L601.47 442.852L625.753 452.901Z" fill="#FFB9B9"/>
<path d="M623.771 676.078L626.869 700.863L608.9 702.103L607.042 676.08L623.771 676.078Z" fill="#FFB9B9"/>
<path d="M621.293 697.145C622.9 695.446 624.382 693.634 625.727 691.723C628.302 688.159 630.587 706.439 630.587 706.439C630.587 706.439 633.066 713.874 632.446 717.592C631.826 721.31 617.576 721.31 615.097 720.692C612.618 720.074 600.227 720.692 600.227 720.692H581.639C565.529 713.257 581.639 708.3 581.639 708.3C586.596 707.68 603.325 692.19 603.325 692.19L607.043 685.375C609.521 684.755 612 694.049 612 694.049L621.293 697.145Z" fill="#090814"/>
<path d="M670.243 676.388L673.343 701.172L655.374 702.412L653.515 676.388H670.243Z" fill="#FFB9B9"/>
<path d="M667.762 697.455C669.368 695.756 670.85 693.944 672.196 692.033C674.771 688.469 677.056 706.749 677.056 706.749C677.056 706.749 679.534 713.565 678.915 717.282C678.296 720.999 664.045 720.999 661.566 720.382C659.087 719.765 646.696 721.002 646.696 721.002H628.108C611.998 713.567 628.108 708.61 628.108 708.61C633.065 707.99 649.794 692.5 649.794 692.5L653.512 685.685C655.99 685.065 658.469 694.359 658.469 694.359L667.762 697.455Z" fill="#090814"/>
<path d="M649.792 516.532C652.271 519.632 651.031 530.163 651.031 530.163C651.031 530.163 655.368 564.241 653.509 567.339C651.65 570.437 654.748 572.915 656.609 577.253C658.47 581.591 660.327 592.123 660.327 592.123C670.86 600.797 670.241 640.452 670.241 640.452L673.958 675.769C672.719 679.487 655.37 680.106 652.892 679.487C650.414 678.868 642.978 623.103 642.978 623.103L626.249 591.503C626.249 591.503 627.488 675.768 627.488 679.486C627.488 683.204 610.759 681.345 607.041 681.345C603.323 681.345 603.323 619.385 603.323 619.385L599.605 603.276L579.778 529.544V520.867L582.878 516.53C582.878 516.53 647.314 513.434 649.792 516.532Z" fill="#090814"/>
<path d="M622.533 375.884C633.141 375.884 641.741 367.284 641.741 356.676C641.741 346.068 633.141 337.468 622.533 337.468C611.925 337.468 603.325 346.068 603.325 356.676C603.325 367.284 611.925 375.884 622.533 375.884Z" fill="#FFB9B9"/>
<path d="M612.93 365.659C616.823 374.329 614.517 386.438 606.729 399.737L638.33 384.867L633.372 380.53L634.612 368.138L612.93 365.659Z" fill="#FFB9B9"/>
<path d="M612.927 385.487C608.789 387.947 606.314 392.467 604.893 397.067C602.262 405.582 600.678 414.387 600.177 423.285L598.677 449.925L580.089 520.56C596.198 534.191 605.489 531.093 627.178 519.94C648.867 508.787 651.343 523.66 651.343 523.66C651.343 523.66 653.202 523.04 651.343 521.182C649.484 519.324 651.343 521.182 653.202 519.323C655.061 517.464 653.202 519.323 652.582 517.464C651.962 515.605 652.582 516.844 653.202 516.225C653.822 515.606 650.724 510.025 650.724 510.025L655.681 463.555L661.881 397.878C654.446 388.584 633.381 380.529 633.381 380.529L614.167 394.16C607.967 396.638 612.928 386.725 612.928 386.725L612.927 385.487Z" fill="#5A89B6"/>
<path d="M672.099 437.223L674.577 474.399L642.977 519.63C642.977 530.163 637.401 532.642 637.401 532.642C635.289 529.271 633.425 525.751 631.825 522.109C628.725 515.293 633.684 509.717 633.684 509.717L655.37 463.867L646.076 440.942L672.099 437.223Z" fill="#FFB9B9"/>
<path d="M661.571 398.189C672.104 401.907 673.963 442.181 673.963 442.181C661.571 435.365 646.701 446.518 646.701 446.518C646.701 446.518 643.601 435.985 639.885 422.354C638.762 418.52 638.628 414.464 639.495 410.564C640.361 406.663 642.201 403.046 644.842 400.048C644.842 400.048 651.034 394.472 661.571 398.189Z" fill="#5A89B6"/>
<path d="M640.19 362.561C637.745 360.605 634.409 364.161 634.409 364.161L632.453 346.555C632.453 346.555 620.227 348.022 612.402 346.066C604.577 344.11 603.355 353.157 603.355 353.157C602.952 349.505 602.87 345.824 603.11 342.157C603.599 337.757 609.957 333.357 621.205 330.42C632.453 327.483 638.321 340.201 638.321 340.201C646.142 344.11 642.635 364.518 640.19 362.561Z" fill="#090814"/>
<path d="M173.968 526.185C175.593 532.76 173.419 538.93 169.112 539.966C164.806 541.001 159.999 536.51 158.374 529.932C157.688 527.314 157.657 524.569 158.284 521.927L151.76 493.979L165.32 491.187L170.312 519.035C172.102 521.096 173.355 523.548 173.968 526.185Z" fill="#FDADB0"/>
<path d="M117.115 685.992L117.951 704.309L117.114 709.378L120.043 715.292L143.051 717.826L144.306 706.844L132.174 700.508L131.822 690.158L117.115 685.992Z" fill="#FDADB0"/>
<path d="M141.377 713.602L140.122 715.292L116.027 708.281C116.027 708.281 117.114 719.093 117.114 721.205C117.114 723.317 156.856 723.317 162.836 722.472C168.816 721.627 166.896 716.136 166.896 716.136L142.096 704.283L141.377 713.602Z" fill="#2F2E43"/>
<path d="M57.1711 672.508L52.1568 690.132L49.7576 694.664L50.6576 701.213L71.6526 711.049L76.3225 701.05L66.837 691.127L72.7871 675.548L57.1711 672.508Z" fill="#FDADB0"/>
<path d="M71.4059 706.506L69.6814 707.701L49.0754 693.273C49.0754 693.273 46.6782 703.868 46.0088 705.869C45.3394 707.87 82.991 720.712 88.9245 721.844C94.8579 722.976 94.779 717.153 94.779 717.153L75.0402 697.91L71.4059 706.506Z" fill="#2F2E43"/>
<path d="M118.738 383.58L119.616 397.986L92.9741 399.351L101.224 380.371L118.738 383.58Z" fill="#FDADB0"/>
<path d="M120.296 395.832C113.155 399.048 101.733 398.168 88.7887 395.832L86.7656 486.378C86.7656 486.378 127.256 494.598 141.178 479.432L133.851 405.449L120.296 395.832Z" fill="#B0D0E0"/>
<path d="M136.782 481.651L79.6189 487.356L51.4094 680.756H73.0246L110.038 548.235L112.968 698.419H132.752L149.604 514.573L136.782 481.651Z" fill="#2F2E43"/>
<path d="M96.9157 390.283L77.7095 401.759C70.4338 406.106 67.0044 414.882 69.3799 423.074L84.2236 474.264C84.2236 474.264 60.0519 516.193 67.9064 519.892C85.5565 528.204 111.894 526.18 111.894 526.18L106.008 425.794L96.9157 390.283Z" fill="#3F3D58"/>
<path d="M119.461 395.451L141.178 403.97L146.307 467.224L160.671 518.182C136.342 527.149 138.614 522.97 138.614 522.97L134.584 435.042L119.461 395.451Z" fill="#3F3D58"/>
<path d="M151.186 517.105L151.112 516.758L128.913 413.09C128.293 410.194 129.086 407.29 131.089 405.124C133.092 402.957 135.907 401.959 138.812 402.386C142.395 402.912 145.263 405.547 146.119 409.099L170.503 510.297L151.186 517.105Z" fill="#3F3D58"/>
<path d="M107.177 387.408C119.115 387.408 128.792 377.636 128.792 365.583C128.792 353.53 119.115 343.759 107.177 343.759C95.2398 343.759 85.5625 353.53 85.5625 365.583C85.5625 377.636 95.2398 387.408 107.177 387.408Z" fill="#FDADB0"/>
<path d="M117.461 337.308C122.222 338.997 124.946 339.964 127.442 342.392C131.657 346.492 132.353 351.971 132.999 357.063C133.505 361.046 134.158 366.195 131.848 372.079C131.06 374.087 127.236 383.033 119.917 384.163C118.48 384.385 115.105 384.444 116.078 383.719C125.08 377.008 128.922 372.957 128.607 362.614C128.411 356.188 118.686 349.25 112.911 348.003C110.479 347.477 107.24 347.957 104.918 349.882C100.065 353.905 100.272 370.541 95.1539 374.019C93.0493 375.449 94.4517 365.382 92.9687 367.014C90.0426 370.236 91.9195 375.169 92.4453 377.048C94.9395 385.959 99.6419 386.831 102.078 394.441C104.708 402.657 101.398 410.392 100.613 412.226C99.2475 415.417 96.9039 420.893 91.5498 423.521C84.7537 426.855 79.3968 422.513 76.2372 426.236C74.4709 428.317 75.4263 430.521 72.2363 436.994C71.1949 439.107 70.6742 440.164 70.2133 440.126C68.0319 439.949 64.5001 422.318 70.2122 405.899C72.6095 399.009 74.958 392.258 81.2533 386.979C84.5816 384.188 87.373 383.184 88.1676 379.924C89.3027 375.268 84.5892 373.281 83.6444 365.934C82.9983 360.91 82.545 353.724 84.302 349.118C85.961 344.769 87.4013 340.993 91.1712 337.57C92.0766 336.748 99.3855 331.158 107.135 331.001C110.703 330.928 113.324 335.84 117.461 337.308Z" fill="#2F2E43"/>
<path d="M163.133 527.954C192.331 527.954 216 504.056 216 474.575C216 445.095 192.331 421.196 163.133 421.196C133.936 421.196 110.267 445.095 110.267 474.575C110.267 504.056 133.936 527.954 163.133 527.954Z" fill="#922C22"/>
<path d="M149.756 509.401C152.965 497.712 156.175 486.023 159.384 474.334C160.067 471.846 160.596 469.082 162.16 466.97C163.369 465.337 165.271 464.269 167.283 464.94C172.082 466.541 172.004 473.533 171.919 477.611C171.79 483.769 170.414 489.912 167.88 495.517C167.532 496.285 167.662 497.202 168.436 497.659C169.102 498.052 170.208 497.87 170.557 497.097C173.095 491.485 174.603 485.478 174.954 479.314C175.256 473.996 175.279 466.982 170.714 463.358C168.482 461.586 165.634 461.06 163.018 462.284C160.433 463.494 158.854 466 157.861 468.594C156.758 471.478 156.1 474.572 155.283 477.548L152.65 487.139C150.688 494.282 148.727 501.425 146.766 508.568C146.232 510.513 149.223 511.343 149.756 509.401Z" fill="white"/>
<path d="M163.506 493.122C165.492 485.596 166.507 477.813 166.515 470.024C166.517 468.009 163.417 468.006 163.414 470.024C163.406 477.549 162.435 485.018 160.516 492.289C160.002 494.238 162.992 495.07 163.506 493.122Z" fill="white"/>
<path d="M131.627 493.031C133.705 482.914 135.955 472.764 138.839 462.846C141.178 454.803 145.211 445.689 153.723 442.773C157.95 441.325 162.532 441.558 166.858 442.399C171.149 443.232 175.494 444.472 179.448 446.369C183.192 448.165 186.655 450.64 189.119 454.049C191.551 457.414 193.066 461.32 193.882 465.388C195.777 474.826 193.547 484.469 191.048 493.566C190.716 494.777 190.376 495.986 190.035 497.194C189.489 499.136 192.48 499.964 193.026 498.026C195.787 488.218 198.655 477.972 197.369 467.679C196.812 463.227 195.575 458.854 193.371 454.936C191.113 450.921 187.854 447.639 183.948 445.253C180.008 442.847 175.572 441.316 171.131 440.166C166.414 438.946 161.505 438.194 156.646 438.876C152.065 439.52 147.937 441.713 144.693 445.024C141.369 448.417 139.122 452.656 137.463 457.086C135.634 461.972 134.44 467.105 133.181 472.163C131.851 477.51 130.611 482.879 129.46 488.267C129.18 489.577 128.906 490.887 128.637 492.199C128.467 493.026 128.876 493.89 129.72 494.125C130.488 494.338 131.456 493.863 131.627 493.031Z" fill="white"/>
<path d="M147.609 460.665C150.028 453.257 157.814 448.67 165.354 449.178C173.711 449.741 180.954 455.904 183.888 463.658C185.631 468.266 186.143 473.337 185.41 478.213C185.285 479.048 185.619 479.896 186.493 480.139C187.226 480.342 188.274 479.886 188.4 479.045C189.865 469.3 187.173 458.681 179.577 452.092C176.016 449.001 171.653 446.863 166.983 446.222C162.492 445.606 157.965 446.446 153.989 448.653C149.628 451.075 146.182 455.044 144.619 459.833C143.993 461.751 146.987 462.573 147.609 460.665Z" fill="white"/>
<path d="M141.012 475.025C140.346 483.057 138.341 490.999 135.097 498.365C134.757 499.137 134.875 500.047 135.653 500.507C136.314 500.897 137.433 500.722 137.775 499.945C141.256 492.039 143.397 483.649 144.113 475.025C144.182 474.181 143.35 473.459 142.562 473.459C141.665 473.459 141.082 474.179 141.012 475.025Z" fill="white"/>
<path d="M178.468 483.99C177.802 492.022 175.797 499.964 172.554 507.331C172.214 508.103 172.332 509.013 173.11 509.472C173.771 509.863 174.89 509.687 175.231 508.911C178.713 501.004 180.854 492.615 181.569 483.99C181.639 483.147 180.807 482.425 180.019 482.425C179.122 482.425 178.539 483.144 178.468 483.99Z" fill="white"/>
<path d="M148.814 477.759C150.808 469.776 154.112 462.21 158.594 455.332C159.694 453.644 157.01 452.074 155.916 453.752C151.299 460.836 147.877 468.704 145.824 476.927C145.336 478.881 148.325 479.715 148.814 477.759Z" fill="white"/>
<path d="M118.51 463.689C125.185 462.98 130.934 466.013 131.349 470.463C131.765 474.913 126.691 479.094 120.013 479.802C117.35 480.124 114.653 479.772 112.15 478.777L83.8316 481.408L82.9814 467.461L110.988 466.348C113.259 464.846 115.838 463.934 118.51 463.689Z" fill="#FDADB0"/>
<path d="M84.0085 402.42C77.1537 401.446 70.7228 405.996 69.298 412.836C64.3273 436.699 55.4074 487.53 69.4171 488.379C87.7351 489.489 105.32 485.05 105.32 485.05L100.924 459.526L86.636 458.046L95.0406 418.354C96.6364 410.817 91.5668 403.495 84.0085 402.42Z" fill="#3F3D58"/>
</svg>
