<svg width="304" height="228" viewBox="0 0 304 228" fill="none" xmlns="http://www.w3.org/2000/svg">
<g clip-path="url(#clip0_1_2)">
<path d="M138.937 80.7724V227.159H142.786V80.7724H138.937Z" fill="#D6D6E3"/>
<path d="M157.411 77.6745H-3.05176e-08V81.5475H76.9736V227.159H80.8222V81.5475H157.411V77.6745Z" fill="#D6D6E3"/>
<path d="M262.486 40.2136L278.452 38.2406L279.683 55.3183H259.342L262.486 40.2136Z" fill="#ED9DA0"/>
<path d="M66.4297 175.979C65.9513 175.167 63.8837 176.036 63.5037 175.299C63.1237 174.563 65.0469 173.448 66.1454 170.893C66.3434 170.435 67.5917 167.529 66.6676 166.635C64.9161 164.937 56.9016 171.943 54.0972 169.65C53.4816 169.147 53.0518 168.142 51.1886 166.512C50.4476 165.861 49.9992 165.57 49.5657 165.679C48.9504 165.832 48.9014 166.662 48.2417 168.291C47.2537 170.735 46.6666 170.588 46.0902 172.536C45.6623 173.983 45.76 174.825 45.2561 174.989C44.5432 175.221 43.8881 173.685 42.9841 173.823C42.0622 173.963 41.5051 175.751 41.3292 177.089C40.9989 179.6 41.9155 181.257 42.4236 183C42.9757 184.894 43.3033 187.774 42.0284 191.851L29.407 227.628C32.1928 220.287 40.2598 200.163 43.6494 192.685C44.6279 190.526 45.7083 188.336 47.9267 187.472C50.0627 186.64 52.9959 187.136 56.7355 186.23C57.1721 186.124 58.3843 185.814 58.5367 185.096C58.6629 184.503 57.95 184.172 58.0594 183.617C58.2065 182.872 59.6083 182.863 61.3308 182.004C62.3029 181.5 63.1882 180.843 63.9528 180.057C64.1489 179.87 67.0658 177.058 66.4289 175.977L66.4297 175.979Z" fill="#F2F2F2"/>
<path d="M16.7815 194.813C16.2495 194.815 16.0747 196.088 15.6054 196.063C15.1361 196.039 15.1475 194.767 14.2184 193.487C14.0509 193.258 12.9952 191.802 12.2918 192C10.9584 192.376 12.0638 198.355 10.1357 199.079C9.71277 199.237 9.09869 199.16 7.76565 199.609C7.23365 199.788 6.96309 199.925 6.89165 200.171C6.78943 200.519 7.17969 200.782 7.78427 201.578C8.69057 202.772 8.45003 203.019 9.23435 203.866C9.81689 204.495 10.2554 204.69 10.1901 204.986C10.0977 205.406 9.15949 205.286 8.96569 205.771C8.76809 206.269 9.47907 207.058 10.0814 207.53C11.2111 208.418 12.2854 208.443 13.2806 208.695C14.3636 208.969 15.8646 209.638 17.4838 211.444L31.2934 228.001C28.5163 224.507 21.028 214.716 18.3582 210.884C17.5875 209.778 16.8313 208.613 17.0498 207.268C17.2603 205.973 18.349 204.668 18.9855 202.56C19.0615 202.313 19.2584 201.625 18.9525 201.343C18.6998 201.11 18.3323 201.366 18.0933 201.152C17.7722 200.864 18.1723 200.169 18.2502 199.07C18.2852 198.445 18.2201 197.818 18.0572 197.214C18.0226 197.063 17.4925 194.811 16.7819 194.814L16.7815 194.813Z" fill="#F2F2F2"/>
<path d="M27.4307 197.218L27.1092 194.329L27.2562 194.11C27.8824 193.255 28.2412 192.232 28.2868 191.171C28.2868 191.022 28.2807 190.872 28.2735 190.72C28.1938 189.963 28.3058 189.197 28.5992 188.494C28.8169 188.007 29.4283 186.88 30.3472 187.02C30.5643 187.051 30.7662 187.15 30.924 187.303C30.9449 187.269 30.9662 187.236 30.989 187.2C31.1844 186.89 31.4318 186.616 31.7201 186.391C31.948 186.208 32.1536 185.999 32.3327 185.767C32.452 185.618 32.5447 185.487 32.623 185.377C32.7294 185.172 32.8858 184.998 33.0776 184.872C33.2694 184.745 33.4901 184.67 33.7189 184.653C34.3037 184.681 34.6104 185.168 34.8133 185.49C35.0674 185.888 35.2804 186.312 35.449 186.754C35.4797 186.839 35.5157 186.921 35.5566 187.002C35.7466 187.281 37.2776 187.02 37.8548 186.925C39.1518 186.708 40.2739 186.519 40.7364 187.342C41.0677 187.931 40.8215 188.709 39.9828 189.718C39.7499 189.994 39.4863 190.242 39.197 190.458C39.3109 190.522 39.4105 190.609 39.4899 190.713C39.5693 190.818 39.6267 190.937 39.6587 191.064C39.8335 191.765 39.2354 192.466 37.8814 193.153C37.4369 193.398 36.9566 193.57 36.4583 193.663C36.1943 193.706 35.9277 193.73 35.6603 193.734C35.6554 193.884 35.6153 194.031 35.5433 194.162C35.3054 194.602 34.8106 194.812 34.0647 194.761C33.3583 194.712 32.6578 194.599 31.972 194.422C31.5422 194.298 31.0979 194.231 30.6508 194.224C29.9979 194.277 29.4944 194.803 28.9028 195.486L27.4284 197.22L27.4307 197.218Z" fill="#F2F2F2"/>
<path d="M28.9225 180.018L26.2272 181.064L25.9794 180.976C24.9983 180.584 23.9231 180.494 22.8912 180.719C22.7475 180.757 22.6058 180.801 22.4614 180.846C21.7535 181.116 20.9893 181.201 20.2399 181.093C19.7167 181.005 18.4782 180.696 18.3779 179.766C18.3525 179.547 18.3965 179.325 18.5037 179.133L18.3897 179.094C18.0419 178.983 17.716 178.811 17.4264 178.588C17.1929 178.412 16.9396 178.265 16.6717 178.15C16.4981 178.073 16.3483 178.014 16.2226 177.966C15.999 177.914 15.7922 177.806 15.6217 177.652C15.4513 177.497 15.3229 177.302 15.2486 177.083C15.127 176.507 15.5173 176.085 15.7757 175.806C16.0943 175.457 16.4474 175.143 16.8294 174.867C16.9032 174.815 16.9738 174.759 17.0407 174.699C17.2611 174.445 16.6227 173.019 16.3841 172.481C15.846 171.274 15.3801 170.23 16.0542 169.571C16.5361 169.099 17.3462 169.141 18.5288 169.702C18.8532 169.859 19.1585 170.052 19.4389 170.279C19.4717 170.152 19.5301 170.033 19.6102 169.929C19.6904 169.826 19.7907 169.739 19.9051 169.676C20.534 169.328 21.3602 169.733 22.3634 170.876C22.7116 171.247 22.999 171.671 23.2149 172.132C23.3232 172.378 23.4137 172.631 23.4859 172.891C23.6314 172.857 23.7827 172.859 23.9274 172.896C24.41 173.016 24.7368 173.445 24.8774 174.183C25.01 174.883 25.0786 175.593 25.0823 176.306C25.0718 176.756 25.1205 177.205 25.227 177.642C25.4436 178.264 26.0767 178.62 26.8823 179.022L28.9229 180.016L28.9225 180.018Z" fill="#F2F2F2"/>
<path d="M27.4307 171.508L27.1092 168.619L27.2562 168.4C27.8825 167.544 28.2413 166.521 28.2868 165.459C28.2868 165.31 28.2807 165.161 28.2735 165.009C28.1939 164.251 28.306 163.486 28.5992 162.784C28.8169 162.297 29.4283 161.17 30.3472 161.309C30.5643 161.34 30.7662 161.439 30.924 161.593C30.9449 161.559 30.9662 161.526 30.989 161.489C31.1844 161.179 31.4318 160.906 31.7201 160.68C31.948 160.498 32.1536 160.288 32.3327 160.057C32.452 159.908 32.5447 159.776 32.623 159.666C32.7294 159.462 32.8858 159.288 33.0776 159.161C33.2694 159.035 33.4901 158.959 33.7189 158.943C34.3037 158.97 34.6104 159.457 34.8133 159.78C35.0673 160.178 35.2804 160.601 35.449 161.043C35.4797 161.128 35.5157 161.211 35.5566 161.291C35.7466 161.571 37.2776 161.309 37.8548 161.215C39.1518 160.997 40.2739 160.809 40.7364 161.632C41.0677 162.221 40.8215 162.999 39.9828 164.008C39.7499 164.284 39.4862 164.532 39.197 164.747C39.3109 164.811 39.4105 164.898 39.4899 165.002C39.5693 165.107 39.6267 165.226 39.6587 165.354C39.8335 166.054 39.2354 166.755 37.8814 167.442C37.4369 167.687 36.9566 167.859 36.4583 167.952C36.1943 167.995 35.9277 168.019 35.6603 168.023C35.6555 168.173 35.6153 168.32 35.5433 168.452C35.3054 168.891 34.8106 169.102 34.0647 169.05C33.3583 169.002 32.6578 168.888 31.972 168.711C31.5422 168.587 31.0979 168.52 30.6508 168.513C29.9979 168.566 29.4944 169.092 28.9028 169.775L27.4284 171.509L27.4307 171.508Z" fill="#F2F2F2"/>
<path d="M30.3681 227.582L29.7665 227.203L29.065 227.284C29.054 227.219 29.0156 227.068 28.9583 226.832C28.0516 223.071 27.3605 219.26 26.8884 215.419C26.3269 211.039 26.0138 206.629 25.9506 202.212C25.8856 197.763 26.0946 194.394 26.2625 191.687C26.3895 189.644 26.5434 187.7 26.6942 185.806C27.0963 180.745 27.4755 175.965 27.1932 170.672C27.1454 168.488 26.591 166.345 25.574 164.414C24.7199 162.866 23.5668 161.505 22.1825 160.411L23.066 159.292C24.5975 160.505 25.8731 162.013 26.8181 163.727C27.9414 165.844 28.5559 168.197 28.6125 170.596C28.8994 175.982 28.5159 180.808 28.1101 185.917C27.9604 187.805 27.8061 189.741 27.6803 191.775C27.5139 194.457 27.3068 197.796 27.371 202.189C27.4331 206.551 27.7421 210.907 28.2963 215.234C28.7617 219.023 29.4435 222.781 30.3384 226.491C30.5033 227.17 30.5379 227.313 30.3688 227.582L30.3681 227.582Z" fill="#F2F2F2"/>
<path d="M19.5776 162.68C19.5194 162.68 19.4605 162.68 19.4009 162.674C18.1921 162.609 17.0726 161.881 16.0732 160.511C15.6047 159.867 15.3649 159.131 14.8865 157.665C14.586 156.702 14.3674 155.715 14.2329 154.715C14.0892 153.683 14.1075 153.253 14.3089 152.872C14.5363 152.467 14.8868 152.145 15.309 151.955C15.2899 151.812 15.3091 151.667 15.3645 151.534C15.6066 150.938 16.2495 151.017 16.5976 151.054C16.8069 151.086 17.0187 151.099 17.2303 151.093C17.5434 151.073 17.8458 150.97 18.107 150.795C18.4749 150.575 18.8759 150.416 19.2945 150.325C20.0413 150.182 20.8128 150.244 21.5277 150.504C23.0629 151.019 23.8199 152.22 24.6962 153.61C25.2046 154.449 25.5982 155.353 25.8662 156.297C26.1516 157.301 26.1117 157.748 26.0258 158.08C25.851 158.762 25.4387 159.152 24.3918 160.014C23.7258 160.606 23.0194 161.151 22.2779 161.644C21.1808 162.281 20.4919 162.681 19.5768 162.681L19.5776 162.68Z" fill="#F2F2F2"/>
<path d="M304 226.933C304.005 227.055 303.961 227.174 303.879 227.264C303.797 227.353 303.683 227.407 303.562 227.412H0V226.456H303.562C303.683 226.461 303.797 226.514 303.879 226.604C303.961 226.693 304.004 226.812 304 226.933Z" fill="#F2F2F2"/>
<path d="M208.792 75.5791C208.792 75.5791 191.039 77.7277 194.034 63.6038C197.028 49.4799 214.006 23.3932 214.006 23.3932L223.641 28.8301L212.58 55.1401L217.342 58.9202L208.792 75.5791Z" fill="#ED9DA0"/>
<path d="M266.967 58.3849L264.466 79.0874L201.782 78.7784L214.371 56.7621L266.967 58.3849Z" fill="#326789"/>
<path d="M229.714 24.4919C233.549 19.1015 233.856 12.7135 230.4 10.2239C226.944 7.73438 221.033 10.086 217.198 15.4764C213.363 20.8668 213.056 27.2548 216.512 29.7444C219.968 32.2339 225.879 29.8823 229.714 24.4919Z" fill="#ED9DA0"/>
<path d="M260.94 137.313V227.159H264.789V137.313H260.94Z" fill="#D6D6E3"/>
<path d="M242.467 137.313V227.159H246.315V137.313H242.467Z" fill="#D6D6E3"/>
<path d="M200.901 137.313V227.159H204.749V137.313H200.901Z" fill="#D6D6E3"/>
<path d="M186.173 137.313V227.159H190.021V137.313H186.173Z" fill="#D6D6E3"/>
<path d="M257.476 135.375H183.154L168.897 155.724L242.851 160.16L257.476 135.375Z" fill="#3F3D56"/>
<path d="M121.335 63.8473L121.724 46.8702L70.1237 50.8656L69.8596 62.3683L121.335 63.8473Z" fill="#ED9DA0"/>
<path d="M86.4124 48.8371L83.9447 54.8116L80.4004 54.9263C80.4004 54.9263 84.5504 56.205 85.7029 63.793L82.2974 64.8201C82.2974 64.8201 79.0267 67.8905 72.9114 67.5926L56.5193 66.2131L56.4562 60.463L67.7855 59.1458C67.7855 59.1458 70.3099 57.4748 57.8132 50.604C57.8132 50.604 53.6735 48.0567 57.3952 35.4784C57.6389 34.632 58.1427 33.8849 58.8342 33.3443C59.5258 32.8036 60.3697 32.4971 61.245 32.4687C62.233 32.4473 63.1609 32.8048 63.5311 34.041C64.4727 37.1879 63.52 40.3249 66.1082 42.2891C68.6964 44.2533 86.409 48.8383 86.409 48.8383L86.4124 48.8371Z" fill="#090814"/>
<path d="M252.004 119.278C252.004 119.278 236.527 145.766 201.506 140.992C197.394 140.429 193.465 138.922 190.025 136.586C186.584 134.251 183.723 131.151 181.663 127.526C173.589 113.33 161.329 88.4722 165.303 74.3969L106.072 63.0218L101.405 48.5473L165.508 40.1685C168.281 39.8061 171.098 40.2804 173.602 41.5313C176.106 42.7822 178.185 44.7532 179.574 47.1945L210.8 102.067L220.11 103.09L252.005 119.278H252.004Z" fill="#090814"/>
<path d="M122.555 71.7972L121.712 57.0607L77.2772 64.1521L77.8472 74.138L122.555 71.7972Z" fill="#ED9DA0"/>
<path opacity="0.046" d="M122.555 71.7979L121.712 57.0615L77.2772 64.1529L77.8472 74.1388L122.555 71.7979Z" fill="#090814"/>
<path d="M86.6704 58.6624L84.6883 64.8186L81.1646 65.2189C81.1646 65.2189 85.4031 66.1576 87.1591 73.6275L83.8466 74.9276C83.8466 74.9276 80.8321 78.2542 74.7144 78.4507L58.2654 78.4025L57.7429 72.6762L68.9301 70.4459C68.9301 70.4459 71.3127 68.5757 58.3072 62.7392C58.3072 62.7392 53.9771 60.5353 56.6827 47.6961C56.858 46.8328 57.3004 46.0474 57.9465 45.4526C58.5926 44.8578 59.4092 44.484 60.2794 44.3848C61.2636 44.2831 62.2174 44.5646 62.6836 45.7671C63.8738 48.826 63.175 52.0314 65.9136 53.78C68.6523 55.5286 86.6723 58.6647 86.6723 58.6647L86.6704 58.6624Z" fill="#090814"/>
<path d="M257.171 117.463C257.171 117.463 243.862 145.118 208.573 143.197C204.429 142.968 200.393 141.784 196.777 139.735C193.16 137.686 190.061 134.828 187.717 131.381C178.535 117.884 164.326 94.1007 167.163 79.7493L107.214 73.2058L101.405 59.1561L164.63 45.6138C167.365 45.0281 170.211 45.2729 172.807 46.317C175.403 47.3611 177.632 49.1576 179.212 51.4785L214.723 103.645L224.084 103.913L257.171 117.463Z" fill="#090814"/>
<path d="M216.601 0.687498L213.523 3.01115L229.688 25.4726L232.766 24.6979L216.601 0.687498Z" fill="#3F3D56"/>
<path d="M258.631 50.5658L276.335 49.7911L284.032 84.6451C284.032 84.6451 255.937 141.572 236.694 139.247V131.504C236.694 128.407 220.529 120.661 220.529 120.661L216.681 107.493L228.226 89.6793C228.226 89.6793 232.845 75.7378 248.24 67.9926L258.631 50.5658Z" fill="#326789"/>
<path d="M267.868 47.4679C279.346 47.4679 288.651 38.105 288.651 26.5554C288.651 15.0058 279.346 5.64298 267.868 5.64298C256.39 5.64298 247.085 15.0058 247.085 26.5554C247.085 38.105 256.39 47.4679 267.868 47.4679Z" fill="#ED9DA0"/>
<path d="M192.222 47.4675L175.779 54.0477L208.041 97.0376L219.376 88.2642L192.222 47.4675Z" fill="#E6E6E6"/>
<path d="M252.088 126.083C252.088 126.083 246.7 143.237 235.154 134.66C223.608 126.084 207.01 99.7501 207.01 99.7501L215.91 93.1665L235.153 114.17L240.542 111.368L252.088 126.083Z" fill="#ED9DA0"/>
<path d="M260.555 65.6693L278.259 76.5129L252.088 133.83L235.152 110.594L260.555 65.6693Z" fill="#326789"/>
<path d="M213.795 100.077C217.476 97.9383 217.79 91.5497 214.495 85.8077C211.201 80.0657 205.545 77.1447 201.864 79.2835C198.182 81.4223 197.868 87.8109 201.163 93.5529C204.458 99.2949 210.113 102.216 213.795 100.077Z" fill="#ED9DA0"/>
<path d="M270.141 89.872C274.733 74.7226 282.811 68.7585 282.811 68.7585C282.811 68.7585 286.38 69.7102 287.217 70.195C291.797 72.8487 293.176 78.8885 290.491 83.4701C283.649 95.1479 269.549 121.904 272.486 139.637C272.486 139.637 277.105 164.422 240.157 164.422C203.21 164.422 167.802 155.902 167.802 155.902L187.046 152.805L230.807 155.95C240.806 156.669 249.233 148.061 247.897 138.064C247.853 137.735 247.8 137.401 247.739 137.063C245.545 124.922 270.14 89.8732 270.14 89.8732L270.141 89.872Z" fill="#D6D6E3"/>
<path d="M260.078 17.8864C259.687 18.9884 259.574 20.171 259.751 21.3277C259.927 22.4844 260.386 23.5788 261.087 24.5124C261.788 25.4461 262.709 26.1895 263.767 26.6759C264.824 27.1623 265.986 27.3764 267.146 27.2987L267.266 27.2907C268.912 29.361 269.828 31.9229 269.869 34.5738C269.91 37.2247 269.075 39.8143 267.494 41.9354C267.227 47.5586 268.102 53.1775 270.067 58.4487C270.067 58.4487 272.081 70.5537 275.586 73.2589C279.092 75.9642 284.083 69.2689 284.083 69.2689C284.083 69.2689 284.067 76.1485 288.841 75.6105C293.616 75.0725 300.845 78.3303 303.181 67.1177C305.518 55.9052 297.462 35.2478 297.462 35.2478L293.075 17.5889C292.333 14.6039 291.01 11.797 289.18 9.33142C287.351 6.86586 285.053 4.79086 282.42 3.2271C279.786 1.66334 276.87 0.642043 273.841 0.222599C270.812 -0.196845 267.73 -0.00606055 264.775 0.783856L255.231 3.33501C253.443 3.81275 251.771 4.65025 250.314 5.79689C248.858 6.94352 247.648 8.37546 246.757 10.0061C245.866 11.6368 245.313 13.4323 245.131 15.2842C244.95 17.136 245.143 19.0057 245.7 20.7801L260.078 17.8864Z" fill="#090814"/>
</g>
<defs>
<clipPath id="clip0_1_2">
<rect width="304" height="228" fill="white"/>
</clipPath>
</defs>
</svg>
