<svg width="800" height="713" viewBox="0 0 800 713" fill="none" xmlns="http://www.w3.org/2000/svg">
<g clip-path="url(#clip0_8_26)">
<path d="M0.353005 622.707C1.49601 629.731 5.56501 635.081 9.42701 639.987L55.386 698.251C59.08 702.941 63.051 707.817 68.016 709.088C78.39 711.837 86.735 698.517 95.601 690.724C127.127 663.024 170.209 705.196 205.843 689.069C220.099 682.616 231.643 667.287 246.177 662.095C284.649 648.302 317.248 709.236 356.971 712.34C370.015 713.325 382.812 707.966 395.271 702.64L478.401 667.055C484.174 664.582 490.046 662.129 496.134 661.981C506.36 661.804 515.887 668.381 525.512 673.124C564.259 692.217 607.283 681.912 647.084 667.449C686.885 652.986 726.973 634.376 768.114 637.46C778.823 638.268 792.97 637.588 795.896 623.539C797.64 615.185 774.104 623.939 768.656 619.439C763.208 614.939 776.173 596.149 769.819 595.351C732.845 590.721 695.171 590.593 659.035 602.251C640.316 608.28 621.903 617.462 602.682 619.344C582.643 621.314 562.713 615.244 543.039 609.729C493.218 595.759 442.55 585.099 391.685 587.267C301.285 591.208 212.243 635.797 122.295 622.867C95.5713 618.914 69.7565 610.269 46.042 597.331C33.904 590.779 34.442 613.981 22.062 621.793C18.033 624.335 7.481 600.631 4.329 605.193C2.5341 607.701 1.25788 610.542 0.575143 613.549C-0.107599 616.557 -0.183125 619.67 0.353005 622.707Z" fill="#F2F2F2"/>
<path d="M102.865 643.533L129.101 646.814L144.401 571.388L114.879 553.891L76.629 595.436L102.865 643.533Z" fill="#ED9DA0"/>
<path d="M454.812 272.964L391.412 329.809C391.412 329.809 268.986 357.142 299.596 318.874C316.935 297.2 314.63 264.304 309.369 239.852C307.016 228.763 303.747 217.889 299.596 207.341C299.596 207.341 457.029 112.28 435.168 184.435C428.686 205.835 427.779 222.335 429.7 234.946C434.291 264.856 454.812 272.964 454.812 272.964Z" fill="#ED9DA0"/>
<path d="M281.036 287.181V511.262L496.378 493.775L460.306 265.32C460.306 265.32 410.278 307.769 365.459 313.235C320.64 318.701 281.036 287.181 281.036 287.181Z" fill="#E1E7EF"/>
<path d="M430.689 237.964L457.029 247.832C457.029 247.832 487.639 267.532 599.129 282.816C599.129 282.816 615.522 282.816 626.458 335.287L766.358 522.207C766.358 522.207 834.129 572.452 777.294 622.775L652.178 636.44C652.178 636.44 724.323 567.575 615.017 565.388L635.243 548.443C635.243 548.443 603.543 518.887 596.988 500.343C590.433 481.799 536.888 460.995 536.888 460.995L543.449 618.395L444.96 633.675L430.778 340.785C430.095 326.97 430.888 313.122 433.142 299.476C436.058 282.17 434.914 258.033 430.778 245.045C429.992 242.571 431.116 239.933 430.694 237.964C430.649 237.668 431.332 238.264 430.689 237.964Z" fill="#3F3D56"/>
<path d="M311.533 247.823L172.71 283.94C172.71 283.94 151.942 270.827 126.8 373.592L38.261 533.192C38.261 533.192 -13.156 583.437 26.252 626.036C65.66 668.635 114.791 647.897 114.791 647.897C114.791 647.897 69.975 577.949 148.681 560.452L178.237 523.291L311.592 538.591L308.252 346.204L311.952 323.781C315.991 299.545 315.991 274.808 311.952 250.572L311.533 247.823Z" fill="#3F3D56"/>
<path d="M173.914 354.952L160.791 364.784L358.649 415.072V395.394L173.914 354.952Z" fill="#E4E6ED"/>
<path d="M556.504 351.671L569.617 361.513L358.649 415.068V395.394L556.504 351.671Z" fill="#E4E6ED"/>
<path d="M148.774 354.952L332.413 397.581L345.526 664.301L184.842 614.017L148.774 354.952Z" fill="#326789"/>
<path d="M578.365 354.952L382.697 399.772L393.623 667.585L575.085 611.833L578.365 354.952Z" fill="#326789"/>
<path d="M325.851 397.581C325.851 397.581 357.909 417.281 391.612 397.581L398.173 669.769H345.535L325.851 397.581Z" fill="#264154"/>
<path opacity="0.1" d="M325.851 397.581C325.851 397.581 357.909 417.281 391.612 397.581L398.173 669.769H345.535L325.851 397.581Z" fill="#264154"/>
<path d="M178.29 351.671V359.321L358.648 395.389C358.648 395.389 266.829 361.503 178.29 351.671Z" fill="#D6D6E3"/>
<path d="M553.223 347.297V354.952L358.648 395.394C358.648 395.394 464.664 357.139 553.223 347.297Z" fill="#D6D6E3"/>
<path d="M613.014 564.896L607.314 566.433C607.314 566.433 570.155 533.922 522.8 583.181C475.445 632.44 538.563 656.551 538.563 656.551C538.563 656.551 603.585 659.339 624.008 647.261C632.798 641.99 642.424 638.262 652.47 636.237C658.613 635.032 664.203 631.878 668.41 627.242C672.235 623.054 675.074 618.063 676.721 612.636C678.368 607.208 678.78 601.481 677.927 595.874C676.823 588.514 673.583 581.639 668.61 576.102C663.636 570.564 657.148 566.608 649.948 564.722C637.831 561.571 625.101 561.631 613.014 564.896Z" fill="#ED9DA0"/>
<path d="M131.287 570.294C131.287 570.294 175.01 530.946 228.574 596.53C282.138 662.114 187.029 663.237 187.029 663.237C187.029 663.237 135.612 675.227 115.977 632.598C96.342 589.969 131.287 570.294 131.287 570.294Z" fill="#ED9DA0"/>
<path d="M618.738 562.222C618.738 562.222 669.564 577.059 658.668 635.707L689.386 632.357L695.869 602.535L682.756 560.999L657.614 551.147L618.738 562.222Z" fill="#3F3D56"/>
<path d="M364.366 247.823C419.05 247.823 463.38 203.493 463.38 148.809C463.38 94.1251 419.05 49.795 364.366 49.795C309.682 49.795 265.352 94.1251 265.352 148.809C265.352 203.493 309.682 247.823 364.366 247.823Z" fill="#ED9DA0"/>
<path d="M451.075 76.213C451.075 76.213 476.975 26.706 419.998 22.205C419.998 22.205 371.427 -21.855 321.92 14.15C321.92 14.15 294.92 14.15 280.149 44.708C280.149 44.708 258.911 36.653 254.243 58.208C254.243 58.208 238.702 103.214 254.243 143.72C269.784 184.226 274.943 188.726 274.943 188.726C274.943 188.726 249.406 103.804 311.565 99.303C373.724 94.802 443.281 55.957 448.465 105.464C453.649 154.971 461.443 167.172 461.443 167.172C461.443 167.172 510.643 96.463 451.075 76.213Z" fill="#090814"/>
</g>
<defs>
<clipPath id="clip0_8_26">
<rect width="800" height="712.457" fill="white"/>
</clipPath>
</defs>
</svg>
